<?xml version="1.0" encoding="utf-8"?>
<!-- Generator: Adobe Illustrator 18.1.1, SVG Export Plug-In . SVG Version: 6.00 Build 0)  -->
<!DOCTYPE svg PUBLIC "-//W3C//DTD SVG 1.1//EN" "http://www.w3.org/Graphics/SVG/1.1/DTD/svg11.dtd">
<svg version="1.1" id="Layer_1" xmlns="http://www.w3.org/2000/svg" xmlns:xlink="http://www.w3.org/1999/xlink" x="0px" y="0px"
	 viewBox="0 0 512 256" enable-background="new 0 0 512 256" xml:space="preserve">
<linearGradient id="SVGID_1_" gradientUnits="userSpaceOnUse" x1="20.3474" y1="128" x2="471.6366" y2="128">
	<stop  offset="0" style="stop-color:#FFFFFF"/>
	<stop  offset="1" style="stop-color:#000000"/>
</linearGradient>
<rect x="20.3" y="115.5" fill="url(#SVGID_1_)" stroke="#000000" stroke-miterlimit="10" width="451.3" height="24.9"/>
<line fill="none" stroke="#BCBCBC" stroke-miterlimit="10" x1="124.3" y1="59.8" x2="124.1" y2="115.3"/>
<line fill="none" stroke="#BCBCBC" stroke-miterlimit="10" x1="174.8" y1="59.8" x2="174.6" y2="115.3"/>
<line fill="none" stroke="#BCBCBC" stroke-miterlimit="10" x1="225.2" y1="59.8" x2="225.1" y2="115.3"/>
<line fill="none" stroke="#BCBCBC" stroke-miterlimit="10" x1="275.7" y1="59.8" x2="275.5" y2="115.3"/>
<line fill="none" stroke="#BCBCBC" stroke-miterlimit="10" x1="326.2" y1="59.8" x2="326" y2="115.3"/>
<line fill="none" stroke="#BCBCBC" stroke-miterlimit="10" x1="376.6" y1="59.8" x2="376.5" y2="115.3"/>
<polygon class="39" fill="#CDCCCC" stroke="#333333" stroke-miterlimit="10" points="124.2,58.8 111.8,45.7 111.8,20.1 136.7,20.1 136.7,45.7 
	"/>
<line fill="none" stroke="#BCBCBC" stroke-miterlimit="10" x1="471.6" y1="195.9" x2="471.7" y2="140.5"/>
<polygon class="inf" stroke="#BCBCBC" stroke-miterlimit="10" points="471.6,196.9 484.1,210 484.1,235.6 459.2,235.6 459.2,210 "/>
<polygon class="3518" fill="#514E4E" stroke="#333333" stroke-miterlimit="10" points="376.6,58.8 364.1,45.7 364.1,20.1 389,20.1 389,45.7 "/>
<polygon fill="#FFFFFF" stroke="#333333" stroke-miterlimit="10" points="20.3,117.2 7.9,104.1 7.9,78.5 32.8,78.5 32.8,104.1 "/>
<polygon stroke="#BCBCBC" stroke-miterlimit="10" points="471.6,117.2 459.2,104.1 459.2,78.5 484.1,78.5 484.1,104.1 "/>
<circle opacity="0.5" fill="none" stroke="#BCBCBC" stroke-miterlimit="10" enable-background="new    " cx="376.5" cy="12.3" r="5.5"/>
<circle opacity="0.5" fill="none" stroke="#BCBCBC" stroke-miterlimit="10" enable-background="new    " cx="471.7" cy="244.6" r="5.5"/>
<circle opacity="0.5" fill="none" stroke="#BCBCBC" stroke-miterlimit="10" enable-background="new    " cx="124.1" cy="12.3" r="5.5"/>
<circle opacity="0.5" fill="none" stroke="#BCBCBC" stroke-miterlimit="10" enable-background="new    " cx="129.7" cy="12.3" r="5.5"/>
<circle opacity="0.5" fill="none" stroke="#BCBCBC" stroke-miterlimit="10" enable-background="new    " cx="135.2" cy="12.3" r="5.5"/>
<circle opacity="0.5" fill="none" stroke="#BCBCBC" stroke-miterlimit="10" enable-background="new    " cx="140.8" cy="12.3" r="5.5"/>
<circle opacity="0.5" fill="none" stroke="#BCBCBC" stroke-miterlimit="10" enable-background="new    " cx="146.3" cy="12.3" r="5.5"/>
<circle opacity="0.5" fill="none" stroke="#BCBCBC" stroke-miterlimit="10" enable-background="new    " cx="126.8" cy="12.3" r="5.5"/>
<circle opacity="0.5" fill="none" stroke="#BCBCBC" stroke-miterlimit="10" enable-background="new    " cx="136.7" cy="12.3" r="5.5"/>
<g id="hanpuku_x5F_data_x5F_files">
</g>
<polygon fill="#BCBCBC" stroke="#333333" stroke-miterlimit="10" points="233.5,150.9 246.6,138.5 258.5,150.3 246,162.7 "/>
<circle opacity="0.5" fill="none" stroke="#BCBCBC" stroke-miterlimit="10" enable-background="new    " cx="471.7" cy="244.6" r="5.5"/>
<circle opacity="0.5" fill="none" stroke="#BCBCBC" stroke-miterlimit="10" enable-background="new    " cx="471.7" cy="244.6" r="5.5"/>
</svg>
