<?xml version="1.0" encoding="utf-8"?>
<!-- Generator: Adobe Illustrator 18.1.1, SVG Export Plug-In . SVG Version: 6.00 Build 0)  -->
<!DOCTYPE svg PUBLIC "-//W3C//DTD SVG 1.1//EN" "http://www.w3.org/Graphics/SVG/1.1/DTD/svg11.dtd">
<svg version="1.1" id="Layer_1" xmlns="http://www.w3.org/2000/svg" xmlns:xlink="http://www.w3.org/1999/xlink" x="0px" y="0px"
	 viewBox="0 0 370 180" enable-background="new 0 0 370 180" xml:space="preserve">
<g>
	<circle fill="none" stroke="#BCBCBC" stroke-miterlimit="10" cx="78" cy="88.9" r="54"/>
	<circle fill="none" stroke="#BCBCBC" stroke-miterlimit="10" cx="265" cy="88.9" r="54"/>
	<polygon class="inf" fill="#BCBCBC" stroke="#333333" stroke-miterlimit="10" points="115.8,127.4 128.9,127.8 141.6,140.5 128.9,153.2 
		116.2,140.5 	"/>
	<line fill="none" stroke="#BCBCBC" stroke-miterlimit="10" x1="197.3" y1="82.9" x2="211.2" y2="84.3"/>
	<line fill="none" stroke="#BCBCBC" stroke-miterlimit="10" x1="236.2" y1="27.3" x2="242.1" y2="40"/>
	<line fill="none" stroke="#BCBCBC" stroke-miterlimit="10" x1="292.7" y1="26.8" x2="286.9" y2="39.5"/>
	<line fill="none" stroke="#BCBCBC" stroke-miterlimit="10" x1="318" y1="46.3" x2="307.1" y2="55"/>
	<line fill="none" stroke="#BCBCBC" stroke-miterlimit="10" x1="327.9" y1="63" x2="314.9" y2="68.2"/>
	<line fill="none" stroke="#BCBCBC" stroke-miterlimit="10" x1="331.6" y1="75.3" x2="317.9" y2="78"/>
	<line fill="none" stroke="#BCBCBC" stroke-miterlimit="10" x1="332.6" y1="81.7" x2="318.7" y2="83.1"/>
	<line fill="none" stroke="#BCBCBC" stroke-miterlimit="10" x1="333" y1="88.2" x2="319" y2="88.2"/>
	<polygon class="39" fill="#BCBCBC" stroke="#333333" stroke-miterlimit="10" points="211,89.5 201.5,98.5 182.5,98.5 182.5,80.5 201.5,80.5"/>
	<polygon class="6518" fill="#BCBCBC" stroke="#333333" stroke-miterlimit="10" points="319,90.5 328.5,81.5 345.5,81.5 345.5,99.5 328.5,99.5 	
		"/>
	<circle opacity="0.5" fill="none" stroke="#BCBCBC" stroke-miterlimit="10" cx="217" cy="88.9" r="4"/>
	<circle opacity="0.5" fill="none" stroke="#BCBCBC" stroke-miterlimit="10" cx="110" cy="121.9" r="4"/>
	<circle opacity="0.5" fill="none" stroke="#BCBCBC" stroke-miterlimit="10" cx="231.1" cy="54.9" r="4"/>
	<circle opacity="0.5" fill="none" stroke="#BCBCBC" stroke-miterlimit="10" cx="265" cy="40.9" r="4"/>
	<circle opacity="0.5" fill="none" stroke="#BCBCBC" stroke-miterlimit="10" cx="313" cy="88.9" r="4"/>
	<circle opacity="0.5" fill="none" stroke="#BCBCBC" stroke-miterlimit="10" cx="219.1" cy="74.8" r="4"/>
	<circle opacity="0.5" fill="none" stroke="#BCBCBC" stroke-miterlimit="10" cx="226.3" cy="60.5" r="4"/>
	<circle opacity="0.5" fill="none" stroke="#BCBCBC" stroke-miterlimit="10" cx="110" cy="121.9" r="4"/>
	<circle opacity="0.5" fill="none" stroke="#BCBCBC" stroke-miterlimit="10" cx="110" cy="121.9" r="4"/>
</g>
</svg>
