<?xml version="1.0" encoding="utf-8"?>
<!-- Generator: Adobe Illustrator 18.1.1, SVG Export Plug-In . SVG Version: 6.00 Build 0)  -->
<!DOCTYPE svg PUBLIC "-//W3C//DTD SVG 1.1//EN" "http://www.w3.org/Graphics/SVG/1.1/DTD/svg11.dtd">
<svg version="1.1" id="Layer_1" xmlns="http://www.w3.org/2000/svg" xmlns:xlink="http://www.w3.org/1999/xlink" x="0px" y="0px"
	 viewBox="0 0 370 180" enable-background="new 0 0 370 180" xml:space="preserve">
<g>
	<circle fill="none" stroke="#BCBCBC" stroke-miterlimit="10" cx="78" cy="88.9" r="54"/>
	<circle fill="none" stroke="#BCBCBC" stroke-miterlimit="10" cx="265" cy="88.9" r="54"/>
	<polygon class="inf" fill="#BCBCBC" stroke="#333333" stroke-miterlimit="10" points="115.8,127.4 128.9,127.8 141.6,140.5 128.9,153.2 
		116.2,140.5 	"/>
	<line fill="none" stroke="#BCBCBC" stroke-miterlimit="10" x1="202.2" y1="62.8" x2="215.1" y2="68.2"/>
	<line fill="none" stroke="#BCBCBC" stroke-miterlimit="10" x1="217" y1="40.7" x2="226.8" y2="50.7"/>
	<line fill="none" stroke="#BCBCBC" stroke-miterlimit="10" x1="239.1" y1="26" x2="244.3" y2="39"/>
	<line fill="none" stroke="#BCBCBC" stroke-miterlimit="10" x1="265.1" y1="20.9" x2="265" y2="34.9"/>
	<line fill="none" stroke="#BCBCBC" stroke-miterlimit="10" x1="291.1" y1="26.1" x2="285.6" y2="39"/>
	<line fill="none" stroke="#BCBCBC" stroke-miterlimit="10" x1="313.1" y1="40.9" x2="303.2" y2="50.7"/>
	<line fill="none" stroke="#BCBCBC" stroke-miterlimit="10" x1="327.9" y1="62.9" x2="314.9" y2="68.2"/>
	<polygon class="39" fill="#BCBCBC" stroke="#333333" stroke-miterlimit="10" points="211,89 201.5,98 183,98 183,80 201.5,80 	"/>
	<polygon class="6518" fill="#BCBCBC" stroke="#333333" stroke-miterlimit="10" points="319,90 328.5,81 346,81 346,99 328.5,99 	"/>
	
		<circle opacity="0.5" fill="none" stroke="#BCBCBC" stroke-miterlimit="10" enable-background="new    " cx="217" cy="88.9" r="4"/>
	
		<circle opacity="0.5" fill="none" stroke="#BCBCBC" stroke-miterlimit="10" enable-background="new    " cx="217.1" cy="86.3" r="4"/>
	
		<circle opacity="0.5" fill="none" stroke="#BCBCBC" stroke-miterlimit="10" enable-background="new    " cx="217.4" cy="83.6" r="4"/>
	
		<circle opacity="0.5" fill="none" stroke="#BCBCBC" stroke-miterlimit="10" enable-background="new    " cx="217.8" cy="81" r="4"/>
	
		<circle opacity="0.5" fill="none" stroke="#BCBCBC" stroke-miterlimit="10" enable-background="new    " cx="110" cy="121.9" r="4"/>
	
		<circle opacity="0.5" fill="none" stroke="#BCBCBC" stroke-miterlimit="10" enable-background="new    " cx="313" cy="88.9" r="4"/>
	
		<circle opacity="0.5" fill="none" stroke="#BCBCBC" stroke-miterlimit="10" enable-background="new    " cx="219.1" cy="74.8" r="4"/>
	
		<circle opacity="0.5" fill="none" stroke="#BCBCBC" stroke-miterlimit="10" enable-background="new    " cx="110" cy="121.9" r="4"/>
	
		<circle opacity="0.5" fill="none" stroke="#BCBCBC" stroke-miterlimit="10" enable-background="new    " cx="110" cy="121.9" r="4"/>
</g>
</svg>
