<?xml version="1.0" encoding="utf-8"?>
<!-- Generator: Adobe Illustrator 18.1.1, SVG Export Plug-In . SVG Version: 6.00 Build 0)  -->
<!DOCTYPE svg PUBLIC "-//W3C//DTD SVG 1.1//EN" "http://www.w3.org/Graphics/SVG/1.1/DTD/svg11.dtd">
<svg version="1.1" id="Layer_1" xmlns="http://www.w3.org/2000/svg" xmlns:xlink="http://www.w3.org/1999/xlink" x="0px" y="0px"
	 viewBox="0 0 512 256" enable-background="new 0 0 512 256" xml:space="preserve">
<line fill="none" stroke="#BCBCBC" stroke-miterlimit="10" x1="95.3" y1="52.5" x2="95" y2="68"/>
<line fill="none" stroke="#BCBCBC" stroke-miterlimit="10" x1="471.7" y1="68.1" x2="20.7" y2="67.8"/>
<line fill="none" stroke="#BCBCBC" stroke-miterlimit="10" x1="20.5" y1="52.5" x2="20.2" y2="68"/>
<line fill="none" stroke="#BCBCBC" stroke-miterlimit="10" x1="170.1" y1="52.5" x2="169.9" y2="68"/>
<line fill="none" stroke="#BCBCBC" stroke-miterlimit="10" x1="244.9" y1="52.5" x2="244.7" y2="68"/>
<line fill="none" stroke="#BCBCBC" stroke-miterlimit="10" x1="319.8" y1="52.5" x2="319.5" y2="68"/>
<line fill="none" stroke="#BCBCBC" stroke-miterlimit="10" x1="394.6" y1="52.5" x2="394.3" y2="68"/>
<polygon class="39" fill="#CDCCCC" stroke="#333333" stroke-miterlimit="10" points="20.3,68 7.9,54.8 7.9,29.2 32.8,29.2 32.8,54.8 "/>
<polygon class="6518" fill="#CDCCCC" stroke="#333333" stroke-miterlimit="10" points="394.5,68 382,54.8 382,29.2 406.9,29.2 406.9,54.8 "/>
<polygon class="inf" fill="#CDCCCC" stroke="#333333" stroke-miterlimit="10" points="471.7,68 484.2,81.1 484.2,106.7 459.3,106.7 459.3,81.1 
	"/>
<circle opacity="0.5" fill="none" stroke="#BCBCBC" stroke-miterlimit="10" enable-background="new    " cx="40.8" cy="16.7" r="5.5"/>
<circle opacity="0.5" fill="none" stroke="#BCBCBC" stroke-miterlimit="10" enable-background="new    " cx="394.3" cy="16.7" r="5.5"/>
<circle opacity="0.5" fill="none" stroke="#BCBCBC" stroke-miterlimit="10" enable-background="new    " cx="471.7" cy="121.3" r="5.5"/>
<circle opacity="0.5" fill="none" stroke="#BCBCBC" stroke-miterlimit="10" enable-background="new    " cx="20.7" cy="16.7" r="5.5"/>
<circle opacity="0.5" fill="none" stroke="#BCBCBC" stroke-miterlimit="10" enable-background="new    " cx="25.8" cy="16.7" r="5.5"/>
<circle opacity="0.5" fill="none" stroke="#BCBCBC" stroke-miterlimit="10" enable-background="new    " cx="27.3" cy="16.7" r="5.5"/>
<circle opacity="0.5" fill="none" stroke="#BCBCBC" stroke-miterlimit="10" enable-background="new    " cx="23.8" cy="16.7" r="5.5"/>
<circle opacity="0.5" fill="none" stroke="#BCBCBC" stroke-miterlimit="10" enable-background="new    " cx="35.3" cy="16.7" r="5.5"/>
<g id="hanpuku_x5F_data_x5F_files">
</g>
<circle opacity="0.5" fill="none" stroke="#BCBCBC" stroke-miterlimit="10" enable-background="new    " cx="471.7" cy="121.3" r="5.5"/>
<circle opacity="0.5" fill="none" stroke="#BCBCBC" stroke-miterlimit="10" enable-background="new    " cx="471.7" cy="121.3" r="5.5"/>
</svg>
